<?xml version="1.0" encoding="UTF-8" standalone="no"?>
<svg
   xmlns:dc="http://purl.org/dc/elements/1.1/"
   xmlns:cc="http://creativecommons.org/ns#"
   xmlns:rdf="http://www.w3.org/1999/02/22-rdf-syntax-ns#"
   xmlns:svg="http://www.w3.org/2000/svg"
   xmlns="http://www.w3.org/2000/svg"
   viewBox="0 0 1600 1600"
   height="1600"
   width="1600"
   xml:space="preserve"
   id="svg2"
   version="1.1"><metadata
     id="metadata8"><rdf:RDF><cc:Work
         rdf:about=""><dc:format>image/svg+xml</dc:format><dc:type
           rdf:resource="http://purl.org/dc/dcmitype/StillImage" /></cc:Work></rdf:RDF></metadata><defs
     id="defs6"><clipPath
       id="clipPath18"
       clipPathUnits="userSpaceOnUse"><path
         id="path16"
         d="M 0,1200 H 1200 V 0 H 0 Z" /></clipPath></defs><g
     transform="matrix(1.3333333,0,0,-1.3333333,0,1600)"
     id="g10"><g
       id="g12"><g
         clip-path="url(#clipPath18)"
         id="g14"><g
           transform="translate(389.4106,706.085)"
           id="g20"><path
             id="path22"
             style="fill:#e53125;fill-opacity:1;fill-rule:nonzero;stroke:none"
             d="m 0,0 v -109.116 h 34.531 v 47.672 c 0,0 1.09,29.649 33.464,25.781 V 1.074 c 0,0 -10.414,7.677 -30.159,-8.225 v 7.672 z" /></g><g
           transform="translate(599.9531,715.9414)"
           id="g24"><path
             id="path26"
             style="fill:#e53125;fill-opacity:1;fill-rule:nonzero;stroke:none"
             d="m 0,0 -23.597,-26.875 c 0,0 -13.393,18.092 -36.426,17.019 0,0 -13.477,1.136 -23.85,-8.494 -5.888,-5.494 -11.445,-16.229 -11.251,-28.533 0,0 -1.389,-16.992 11.536,-29.864 0.425,-0.452 8.772,-9.372 26.301,-9.067 0,0 18.366,-1.347 34.248,16.166 L 0,-94.329 c 0,0 -29.622,-30.984 -63.318,-27.364 0,0 -24.67,0.678 -44.419,16.456 -13.098,10.372 -26.644,28.538 -26.312,53.155 0,0 -3.032,27.949 17.523,51.535 0.405,0.463 20.576,25.801 57.603,26.033 0,0 31.237,3.026 58.923,-25.486" /></g><g
           transform="translate(275.3491,715.9414)"
           id="g28"><path
             id="path30"
             style="fill:#e53125;fill-opacity:1;fill-rule:nonzero;stroke:none"
             d="m 0,0 -23.565,-26.875 c 0,0 -13.425,18.092 -36.464,17.019 0,0 -13.492,1.136 -23.817,-8.494 -5.879,-5.494 -11.435,-16.229 -11.246,-28.533 0,0 -1.4,-16.992 11.488,-29.864 0.452,-0.452 8.788,-9.372 26.328,-9.067 0,0 18.36,-1.347 34.263,16.166 L 0,-94.329 c 0,0 -29.575,-30.984 -63.302,-27.364 0,0 -24.712,0.678 -44.404,16.456 -13.088,10.372 -26.649,28.538 -26.333,53.155 0,0 -3.005,27.949 17.565,51.535 0.38,0.463 20.524,25.801 57.571,26.033 0,0 31.212,3.026 58.903,-25.486" /></g><path
           id="path32"
           style="fill:#e53125;fill-opacity:1;fill-rule:nonzero;stroke:none"
           d="m 610.945,597.477 h 35.058 v 145.316 h -35.058 z" /><g
           transform="translate(659.1602,705.5449)"
           id="g34"><path
             id="path36"
             style="fill:#e53125;fill-opacity:1;fill-rule:nonzero;stroke:none"
             d="m 0,0 h 35.121 v -65.817 c 0,0 3.825,-11.24 16.73,-10.414 0,0 8.735,-0.3 13.945,9.883 V 0 h 36.731 V -107.506 H 66.354 v 4.389 h -3.811 c 0,0 -12.624,-9.34 -26.911,-8.23 0,0 -32.332,1.084 -35.632,39.457 z" /></g><g
           transform="translate(830.4922,628.1919)"
           id="g38"><path
             id="path40"
             style="fill:#e53125;fill-opacity:1;fill-rule:nonzero;stroke:none"
             d="m 0,0 c -11.278,0 -20.562,10.814 -20.562,24.17 0,13.298 9.284,24.076 20.562,24.076 11.387,0 20.591,-10.778 20.591,-24.076 C 20.591,10.814 11.387,0 0,0 m 40.62,66.917 c -7.657,7.309 -18.666,13.756 -35.116,14.519 0,0 -16.703,0.805 -22.881,-9.988 l -2.6,-0.169 v 43.094 L -58.919,114.6 V -31.8 h 37.295 v 6.035 h 3.82 c 0,0 7.431,-8.178 26.576,-7.146 0,0 17.324,0 30.458,12.388 0,0 17.014,15.866 18.103,38.084 0,0 2.626,30.785 -16.713,49.356" /></g><g
           transform="translate(340.8818,635.6128)"
           id="g42"><path
             id="path44"
             style="fill:#e53125;fill-opacity:1;fill-rule:nonzero;stroke:none"
             d="m 0,0 c -1.1,-10.672 -17.266,-12.33 -17.266,-12.33 -14.256,-2.199 -13.172,8.268 -13.172,8.268 0,10.624 18.918,9.53 18.918,9.53 C 0.837,5.199 0,0 0,0 m -6.299,72.916 c 0,0 -25.797,2.752 -51.551,-10.13 l 10.431,-29.601 c 0,0 41.662,16.445 47.156,-2.216 0,0 -38.358,6.347 -54.85,-9.588 0,0 -10.42,-7.404 -11.257,-26.054 -1.063,-23.013 17.303,-29.859 17.303,-30.717 0,0 21.376,-12.045 47.714,0 l 3.279,-2.704 h 34.548 v 73.978 c 0,0 -3.258,32.643 -42.773,37.032" /></g><g
           transform="translate(910.2607,734.1235)"
           id="g46"><path
             id="path48"
             style="fill:#e53125;fill-opacity:1;fill-rule:nonzero;stroke:none"
             d="m 0,0 4.372,-8.699 c 0,0 46.847,26.07 100.665,17.419 0,0 82.252,-10.667 90.929,-100.08 0,0 2.595,-29.265 -11.719,-62.481 0,0 -21.497,-47.52 -74.874,-77.926 0,0 -66.406,-45.12 -141.517,-10.409 l 9.557,15.672 c 0,0 31.28,-15.672 62.544,-14.803 0,0 49.451,0 98.923,47.761 0,0 46.024,39.931 42.51,102.417 0,0 -2.595,59.028 -78.952,74.631 0,0 -36.454,6.105 -74.626,-14.766 l 6.924,-11.246 h -50.35 z" /></g><g
           transform="translate(1060.6455,586.165)"
           id="g50"><path
             id="path52"
             style="fill:#e53125;fill-opacity:1;fill-rule:nonzero;stroke:none"
             d="m 0,0 11.087,-0.663 c 0,0 -32.542,-78.163 -116.525,-84.004 0,0 -38.411,-4.531 -63.807,14.981 l 8.446,14.994 c 0,0 16.282,-21.487 49.472,-20.213 0,0 50.766,-3.268 84.636,36.473 0,0 22.149,24.712 26.691,38.432" /></g><g
           transform="translate(913.5088,557.5039)"
           id="g54"><path
             id="path56"
             style="fill:#e53125;fill-opacity:1;fill-rule:nonzero;stroke:none"
             d="m 0,0 -9.104,-18.261 c 0,0 13.044,-22.138 46.208,-21.454 0,0 29.292,-1.958 41.7,8.456 l -2.636,5.847 c 0,0 -22.766,-9.104 -41.657,-5.168 0,0 -23.434,0.632 -34.511,30.58" /></g><g
           transform="translate(249.5044,571.3076)"
           id="g58"><path
             id="path60"
             style="fill:#e53125;fill-opacity:1;fill-rule:nonzero;stroke:none"
             d="m 0,0 c 0.489,-23.533 -20.513,-31.359 -43.546,-26.081 -2.258,-4.241 -1.937,-12.051 -1.285,-17.902 6.763,4.152 20.161,8.604 27.733,2.136 -2.231,-6.767 -5.235,-12.724 -7.656,-19.218 -3.821,3.084 -12.004,2.236 -17.098,0.852 3.621,-22.881 -5.447,-42.246 -29.459,-38.894 1.342,3.631 4.631,6.289 5.136,12.409 0.779,9.777 -4.842,20.018 -5.136,31.158 -0.363,12.499 3.436,21.155 7.678,31.206 -13.035,0.68 -21.207,-3.578 -29.491,-7.73 3.116,18.524 10.904,34.322 32.485,33.753 10.088,-0.257 18.113,-3.899 26.881,-5.962 C -21.429,-7.21 -9.835,-4.311 0,0" /></g><g
           transform="translate(582.2388,564.0566)"
           id="g62"><path
             id="path64"
             style="fill:#e53125;fill-opacity:1;fill-rule:nonzero;stroke:none"
             d="m 0,0 c 0.968,-3.269 0.147,-8.426 0.426,-12.383 4.547,-1.005 10.951,-0.174 16.266,-0.463 v -14.108 c -4.889,-0.148 -12.156,0.441 -14.972,-0.374 0.384,-8.189 -2.168,-20.612 0,-28.217 1.116,-3.994 4.415,-4.452 5.111,-7.252 -3.927,-1.41 -7.457,-3.257 -11.52,-5.136 -3.41,-1.563 -8.226,-5.194 -11.515,-5.088 -3.289,0.094 -7.856,4.499 -8.988,7.256 -3.731,9.004 1.027,26.886 -0.847,38.437 -2.841,0.689 -11.193,0.553 -14.146,0 C -27.702,-17.298 -12.978,-9.504 0,0" /></g><g
           transform="translate(287.5234,501.2617)"
           id="g66"><path
             id="path68"
             style="fill:#e53125;fill-opacity:1;fill-rule:nonzero;stroke:none"
             d="m 0,0 c -3.984,-1.415 -7.447,-3.257 -11.541,-5.141 -3.441,-1.557 -8.204,-5.194 -11.53,-5.084 -3.583,0.09 -7.762,4.268 -8.94,7.257 -5.221,12.672 6.073,42.568 -7.71,46.088 8.01,4.174 17.25,7.516 24.76,10.709 0.157,0.079 0.689,0 0.847,0 C 1.158,50.356 -8.894,24.839 -5.552,8.126 -4.758,4.236 -0.968,2.868 0,0" /></g><g
           transform="translate(333.6621,544.3838)"
           id="g70"><path
             id="path72"
             style="fill:#e53125;fill-opacity:1;fill-rule:nonzero;stroke:none"
             d="m 0,0 c 6.315,2.668 12.114,5.815 18.355,8.541 6.031,-6.636 11.167,-14.14 16.224,-21.766 -6.141,-3.247 -12.388,-6.382 -18.355,-9.84 -4.136,-0.095 -8.225,12.83 -13.698,11.578 -2.826,-0.727 -2.11,-6.284 -2.11,-11.152 0,-8.888 -0.858,-17.413 5.994,-19.633 -3.479,-2.069 -7.299,-4.016 -11.514,-5.99 -7.058,-3.23 -13.73,-7.603 -19.256,-0.831 -8.783,10.714 5.205,44.673 -9.393,49.935 6.946,1.969 18.139,7.51 25.202,9.867 C -4.936,11.888 -0.137,5.446 0,0" /></g><g
           transform="translate(404.9922,521.7471)"
           id="g74"><path
             id="path76"
             style="fill:#e53125;fill-opacity:1;fill-rule:nonzero;stroke:none"
             d="M 0,0 C -5.663,6.325 -0.111,16.187 5.125,19.213 9.177,16.187 12.771,12.655 15.808,8.566 10.372,5.852 5.062,3.052 0,0 M 30.343,20.938 C 26.97,24.417 22.191,32.374 17.502,33.348 16.208,33.59 14.424,33.063 13.24,32.921 -5.889,30.29 -26.244,21.229 -26.064,0.431 c 0.231,-30.022 32.394,-37.078 60.68,-26.886 1.61,5.216 3.315,10.325 5.099,15.366 -9.151,-3.925 -25.791,-6.867 -32.064,1.711 11.877,5.815 24.176,11.146 35.042,17.944 -3.688,4.426 -7.814,7.621 -12.35,12.372" /></g><g
           transform="translate(528.3965,539.2451)"
           id="g78"><path
             id="path80"
             style="fill:#e53125;fill-opacity:1;fill-rule:nonzero;stroke:none"
             d="m 0,0 c -2.152,-2.578 -5.31,-4.331 -8.083,-6.347 -6.92,2.864 -12.677,6.915 -19.671,9.788 -6.647,-3.225 0.895,-7.704 5.152,-10.251 6.609,-3.93 11.919,-6.604 18.345,-10.687 2.984,-1.848 7.188,-4.553 7.24,-7.257 0.195,-5.174 -11.555,-11.094 -15.345,-13.693 -6.54,-4.389 -12.035,-7.304 -17.518,-11.504 -11.446,5.767 -22.165,12.277 -33.743,17.94 1.484,2.947 4.721,4.099 6.878,6.441 7.915,-3.915 15.451,-8.178 23.465,-11.977 8.531,5.689 -9.982,13.292 -14.513,16.229 -2.926,1.852 -6.057,4.389 -8.952,6.373 -3.109,2.132 -7.899,4.331 -8.146,7.267 -0.5,5.715 10.946,9.782 15.398,12.388 7.589,4.567 12.624,7.667 18.328,11.141 C -20.197,11.109 -10.346,5.31 0,0" /></g><g
           transform="translate(651.8682,505.9795)"
           id="g82"><path
             id="path84"
             style="fill:#e53125;fill-opacity:1;fill-rule:nonzero;stroke:none"
             d="M 0,0 C -11.104,3.442 -20.576,24.365 -9.415,34.596 4.53,32.549 12.309,8.631 0,0 M 31.174,28.591 C 28.512,34.737 22.854,38.874 18.339,41.416 12.424,44.81 0.325,49.499 -7.289,48.688 -22.435,47.015 -35.832,37.5 -39.722,29.875 c -7.119,-13.846 -0.615,-29.633 8.089,-35.842 5.305,-3.778 23.066,-10.693 31.223,-9.883 3.898,0.426 9.692,4.094 13.65,6.457 11.446,6.667 24.617,22.439 17.934,37.984" /></g><g
           transform="translate(732.5664,545.6895)"
           id="g86"><path
             id="path88"
             style="fill:#e53125;fill-opacity:1;fill-rule:nonzero;stroke:none"
             d="m 0,0 c 5.204,1.505 10.02,2.957 15.435,4.721 4.546,1.489 10.461,4.814 14.929,4.683 4.783,-0.231 9.073,-4.425 10.672,-7.32 5.268,-9.352 -0.289,-27.822 2.106,-38.842 0.82,-3.668 4.699,-4.652 5.551,-7.667 -3.762,-1.5 -7.157,-3.268 -11.077,-5.141 -3.231,-1.547 -7.673,-5.089 -10.667,-5.089 -3.888,0 -7.884,4.131 -8.988,6.804 -3.937,9.325 1.851,27.901 -1.705,35.058 -2.715,5.463 -11.204,1.721 -15.798,0.39 0.994,-7.726 -1.368,-17.172 0,-23.897 0.926,-4.505 4.899,-5.084 5.515,-8.125 -3.836,-1.568 -7.431,-3.194 -11.508,-5.141 -3.284,-1.547 -8.021,-5.084 -11.089,-5.089 -3.131,-0.042 -6.777,3.051 -8.146,5.089 -7.362,10.945 5.315,45.12 -8.93,48.261 5.257,3.479 17.376,7.073 23.886,9.815 C -5.883,10.198 -0.705,6.499 0,0" /></g><g
           transform="translate(829.9678,540.9609)"
           id="g90"><path
             id="path92"
             style="fill:#e53125;fill-opacity:1;fill-rule:nonzero;stroke:none"
             d="m 0,0 c -4.983,-2.82 -10.436,-12.646 -5.12,-19.213 5.178,2.968 10.383,5.852 15.802,8.567 C 7.672,-6.557 4.089,-3.025 0,0 M 37.605,-11.503 C 25.485,-16.95 14.324,-23.26 2.572,-29.021 c 6.852,-7.81 22.887,-5.342 32.018,-1.285 -1.584,-5.225 -3.311,-10.33 -5.111,-15.366 -27.89,-9.909 -63.848,-4.247 -60.233,31.169 1.805,17.561 22.465,26.054 38.879,28.206 1.726,0.2 3.663,0.817 5.115,0.432 C 16.329,13.225 23.712,3.89 26.054,1.3 c 4.393,-4.752 9.114,-8.456 11.551,-12.803" /></g></g></g></g></svg>