<?xml version="1.0" encoding="utf-8"?>
<!-- Generator: Adobe Illustrator 24.1.2, SVG Export Plug-In . SVG Version: 6.00 Build 0)  -->
<svg version="1.1"
	 id="svg2" xmlns:cc="http://creativecommons.org/ns#" xmlns:dc="http://purl.org/dc/elements/1.1/" xmlns:rdf="http://www.w3.org/1999/02/22-rdf-syntax-ns#" xmlns:svg="http://www.w3.org/2000/svg"
	 xmlns="http://www.w3.org/2000/svg" xmlns:xlink="http://www.w3.org/1999/xlink" x="0px" y="0px" viewBox="0 0 1287 363.7"
	 style="enable-background:new 0 0 1287 363.7;" xml:space="preserve">
<style type="text/css">
	.st0{fill:#E53125;}
</style>
<g id="g10" transform="matrix(1.3333333,0,0,-1.3333333,0,1600)">
	<g id="g12">
		<g>
			<g id="g14">
				<g id="g20" transform="translate(389.4106,706.085)">
					<path id="path22" class="st0" d="M-141.2,455.4V346.3h34.5V394c0,0,1.1,29.6,33.5,25.8v36.7c0,0-10.4,7.7-30.2-8.2v7.7
						L-141.2,455.4z"/>
				</g>
				<g id="g24" transform="translate(599.9531,715.9414)">
					<path id="path26" class="st0" d="M-141.2,455.4l-23.6-26.9c0,0-13.4,18.1-36.4,17c0,0-13.5,1.1-23.9-8.5
						c-5.9-5.5-11.4-16.2-11.3-28.5c0,0-1.4-17,11.5-29.9c0.4-0.5,8.8-9.4,26.3-9.1c0,0,18.4-1.3,34.2,16.2l23-24.7
						c0,0-29.6-31-63.3-27.4c0,0-24.7,0.7-44.4,16.5c-13.1,10.4-26.6,28.5-26.3,53.2c0,0-3,27.9,17.5,51.5
						c0.4,0.5,20.6,25.8,57.6,26C-200.1,480.9-168.8,483.9-141.2,455.4"/>
				</g>
				<g id="g28" transform="translate(275.3491,715.9414)">
					<path id="path30" class="st0" d="M-141.2,455.4l-23.6-26.9c0,0-13.4,18.1-36.5,17c0,0-13.5,1.1-23.8-8.5
						c-5.9-5.5-11.4-16.2-11.2-28.5c0,0-1.4-17,11.5-29.9c0.5-0.5,8.8-9.4,26.3-9.1c0,0,18.4-1.3,34.3,16.2l23-24.7
						c0,0-29.6-31-63.3-27.4c0,0-24.7,0.7-44.4,16.5c-13.1,10.4-26.6,28.5-26.3,53.2c0,0-3,27.9,17.6,51.5
						c0.4,0.5,20.5,25.8,57.6,26C-200.1,480.9-168.8,483.9-141.2,455.4"/>
				</g>
				<path id="path32" class="st0" d="M469.8,1052.9h35.1v145.3h-35.1V1052.9z"/>
				<g id="g34" transform="translate(659.1602,705.5449)">
					<path id="path36" class="st0" d="M-141.2,455.4h35.1v-65.8c0,0,3.8-11.2,16.7-10.4c0,0,8.7-0.3,13.9,9.9v66.3h36.7V347.9h-36.2
						v4.4h-3.8c0,0-12.6-9.3-26.9-8.2c0,0-32.3,1.1-35.6,39.5V455.4z"/>
				</g>
				<g id="g38" transform="translate(830.4922,628.1919)">
					<path id="path40" class="st0" d="M-141.2,455.4c-11.3,0-20.6,10.8-20.6,24.2c0,13.3,9.3,24.1,20.6,24.1
						c11.4,0,20.6-10.8,20.6-24.1C-120.6,466.2-129.8,455.4-141.2,455.4 M-100.5,522.3c-7.7,7.3-18.7,13.8-35.1,14.5
						c0,0-16.7,0.8-22.9-10l-2.6-0.2v43.1l-38.9,0.2V423.6h37.3v6h3.8c0,0,7.4-8.2,26.6-7.1c0,0,17.3,0,30.5,12.4
						c0,0,17,15.9,18.1,38.1C-83.8,473-81.2,503.7-100.5,522.3"/>
				</g>
				<g id="g42" transform="translate(340.8818,635.6128)">
					<path id="path44" class="st0" d="M-141.2,455.4c-1.1-10.7-17.3-12.3-17.3-12.3c-14.3-2.2-13.2,8.3-13.2,8.3
						c0,10.6,18.9,9.5,18.9,9.5C-140.3,460.6-141.2,455.4-141.2,455.4 M-147.5,528.3c0,0-25.8,2.8-51.6-10.1l10.4-29.6
						c0,0,41.7,16.4,47.2-2.2c0,0-38.4,6.3-54.9-9.6c0,0-10.4-7.4-11.3-26.1c-1.1-23,17.3-29.9,17.3-30.7c0,0,21.4-12,47.7,0
						l3.3-2.7h34.5v74C-104.7,491.3-107.9,523.9-147.5,528.3"/>
				</g>
				<g id="g46" transform="translate(910.2607,734.1235)">
					<path id="path48" class="st0" d="M-141.2,455.4l4.4-8.7c0,0,46.8,26.1,100.7,17.4c0,0,82.3-10.7,90.9-100.1
						c0,0,2.6-29.3-11.7-62.5c0,0-21.5-47.5-74.9-77.9c0,0-66.4-45.1-141.5-10.4l9.6,15.7c0,0,31.3-15.7,62.5-14.8
						c0,0,49.5,0,98.9,47.8c0,0,46,39.9,42.5,102.4c0,0-2.6,59-79,74.6c0,0-36.5,6.1-74.6-14.8l6.9-11.2h-50.4L-141.2,455.4z"/>
				</g>
				<g id="g50" transform="translate(1060.6455,586.165)">
					<path id="path52" class="st0" d="M-141.2,455.4l11.1-0.7c0,0-32.5-78.2-116.5-84c0,0-38.4-4.5-63.8,15l8.4,15
						c0,0,16.3-21.5,49.5-20.2c0,0,50.8-3.3,84.6,36.5C-167.8,417-145.7,441.7-141.2,455.4"/>
				</g>
				<g id="g54" transform="translate(913.5088,557.5039)">
					<path id="path56" class="st0" d="M-141.2,455.4l-9.1-18.3c0,0,13-22.1,46.2-21.5c0,0,29.3-2,41.7,8.5L-65,430
						c0,0-22.8-9.1-41.7-5.2C-106.6,424.8-130.1,425.4-141.2,455.4"/>
				</g>
				<g id="g58" transform="translate(249.5044,571.3076)">
					<path id="path60" class="st0" d="M-141.2,455.4c0.5-23.5-20.5-31.4-43.5-26.1c-2.3-4.2-1.9-12.1-1.3-17.9
						c6.8,4.2,20.2,8.6,27.7,2.1c-2.2-6.8-5.2-12.7-7.7-19.2c-3.8,3.1-12,2.2-17.1,0.9c3.6-22.9-5.4-42.2-29.5-38.9
						c1.3,3.6,4.6,6.3,5.1,12.4c0.8,9.8-4.8,20-5.1,31.2c-0.4,12.5,3.4,21.2,7.7,31.2c-13,0.7-21.2-3.6-29.5-7.7
						c3.1,18.5,10.9,34.3,32.5,33.8c10.1-0.3,18.1-3.9,26.9-6C-162.6,448.2-151,451.1-141.2,455.4"/>
				</g>
				<g id="g62" transform="translate(582.2388,564.0566)">
					<path id="path64" class="st0" d="M-141.2,455.4c1-3.3,0.1-8.4,0.4-12.4c4.5-1,11-0.2,16.3-0.5v-14.1c-4.9-0.1-12.2,0.4-15-0.4
						c0.4-8.2-2.2-20.6,0-28.2c1.1-4,4.4-4.5,5.1-7.3c-3.9-1.4-7.5-3.3-11.5-5.1c-3.4-1.6-8.2-5.2-11.5-5.1c-3.3,0.1-7.9,4.5-9,7.3
						c-3.7,9,1,26.9-0.8,38.4c-2.8,0.7-11.2,0.6-14.1,0C-168.9,438.1-154.1,445.9-141.2,455.4"/>
				</g>
				<g id="g66" transform="translate(287.5234,501.2617)">
					<path id="path68" class="st0" d="M-141.2,455.4c-4-1.4-7.4-3.3-11.5-5.1c-3.4-1.6-8.2-5.2-11.5-5.1c-3.6,0.1-7.8,4.3-8.9,7.3
						c-5.2,12.7,6.1,42.6-7.7,46.1c8,4.2,17.2,7.5,24.8,10.7c0.2,0.1,0.7,0,0.8,0c15.3-3.5,5.2-29,8.6-45.7
						C-145.9,459.6-142.1,458.3-141.2,455.4"/>
				</g>
				<g id="g70" transform="translate(333.6621,544.3838)">
					<path id="path72" class="st0" d="M-141.2,455.4c6.3,2.7,12.1,5.8,18.4,8.5c6-6.6,11.2-14.1,16.2-21.8
						c-6.1-3.2-12.4-6.4-18.4-9.8c-4.1-0.1-8.2,12.8-13.7,11.6c-2.8-0.7-2.1-6.3-2.1-11.2c0-8.9-0.9-17.4,6-19.6
						c-3.5-2.1-7.3-4-11.5-6c-7.1-3.2-13.7-7.6-19.3-0.8c-8.8,10.7,5.2,44.7-9.4,49.9c6.9,2,18.1,7.5,25.2,9.9
						C-146.1,467.3-141.3,460.8-141.2,455.4"/>
				</g>
				<g id="g74" transform="translate(404.9922,521.7471)">
					<path id="path76" class="st0" d="M-141.2,455.4c-5.7,6.3-0.1,16.2,5.1,19.2c4.1-3,7.6-6.6,10.7-10.6
						C-130.8,461.2-136.1,458.4-141.2,455.4 M-110.8,476.3c-3.4,3.5-8.2,11.4-12.8,12.4c-1.3,0.2-3.1-0.3-4.3-0.4
						c-19.1-2.6-39.5-11.7-39.3-32.5c0.2-30,32.4-37.1,60.7-26.9c1.6,5.2,3.3,10.3,5.1,15.4c-9.2-3.9-25.8-6.9-32.1,1.7
						c11.9,5.8,24.2,11.1,35,17.9C-102.2,468.4-106.3,471.6-110.8,476.3"/>
				</g>
				<g id="g78" transform="translate(528.3965,539.2451)">
					<path id="path80" class="st0" d="M-141.2,455.4c-2.2-2.6-5.3-4.3-8.1-6.3c-6.9,2.9-12.7,6.9-19.7,9.8
						c-6.6-3.2,0.9-7.7,5.2-10.3c6.6-3.9,11.9-6.6,18.3-10.7c3-1.8,7.2-4.6,7.2-7.3c0.2-5.2-11.6-11.1-15.3-13.7
						c-6.5-4.4-12-7.3-17.5-11.5c-11.4,5.8-22.2,12.3-33.7,17.9c1.5,2.9,4.7,4.1,6.9,6.4c7.9-3.9,15.5-8.2,23.5-12
						c8.5,5.7-10,13.3-14.5,16.2c-2.9,1.9-6.1,4.4-9,6.4c-3.1,2.1-7.9,4.3-8.1,7.3c-0.5,5.7,10.9,9.8,15.4,12.4
						c7.6,4.6,12.6,7.7,18.3,11.1C-161.4,466.5-151.5,460.7-141.2,455.4"/>
				</g>
				<g id="g82" transform="translate(651.8682,505.9795)">
					<path id="path84" class="st0" d="M-141.2,455.4c-11.1,3.4-20.6,24.4-9.4,34.6C-136.6,487.9-128.8,464-141.2,455.4 M-110,484
						c-2.7,6.1-8.3,10.3-12.8,12.8c-5.9,3.4-18,8.1-25.6,7.3c-15.1-1.7-28.5-11.2-32.4-18.8c-7.1-13.8-0.6-29.6,8.1-35.8
						c5.3-3.8,23.1-10.7,31.2-9.9c3.9,0.4,9.7,4.1,13.7,6.5C-116.5,452.7-103.3,468.4-110,484"/>
				</g>
				<g id="g86" transform="translate(732.5664,545.6895)">
					<path id="path88" class="st0" d="M-141.2,455.4c5.2,1.5,10,3,15.4,4.7c4.5,1.5,10.5,4.8,14.9,4.7c4.8-0.2,9.1-4.4,10.7-7.3
						c5.3-9.4-0.3-27.8,2.1-38.8c0.8-3.7,4.7-4.7,5.6-7.7c-3.8-1.5-7.2-3.3-11.1-5.1c-3.2-1.5-7.7-5.1-10.7-5.1
						c-3.9,0-7.9,4.1-9,6.8c-3.9,9.3,1.9,27.9-1.7,35.1c-2.7,5.5-11.2,1.7-15.8,0.4c1-7.7-1.4-17.2,0-23.9c0.9-4.5,4.9-5.1,5.5-8.1
						c-3.8-1.6-7.4-3.2-11.5-5.1c-3.3-1.5-8-5.1-11.1-5.1c-3.1,0-6.8,3.1-8.1,5.1c-7.4,10.9,5.3,45.1-8.9,48.3
						c5.3,3.5,17.4,7.1,23.9,9.8C-147,465.6-141.9,461.9-141.2,455.4"/>
				</g>
				<g id="g90" transform="translate(829.9678,540.9609)">
					<path id="path92" class="st0" d="M-141.2,455.4c-5-2.8-10.4-12.6-5.1-19.2c5.2,3,10.4,5.9,15.8,8.6
						C-133.5,448.8-137.1,452.4-141.2,455.4 M-103.6,443.9c-12.1-5.4-23.3-11.8-35-17.5c6.9-7.8,22.9-5.3,32-1.3
						c-1.6-5.2-3.3-10.3-5.1-15.4c-27.9-9.9-63.8-4.2-60.2,31.2c1.8,17.6,22.5,26.1,38.9,28.2c1.7,0.2,3.7,0.8,5.1,0.4
						c3.1-0.9,10.5-10.2,12.8-12.8C-110.7,451.9-106,448.2-103.6,443.9"/>
				</g>
			</g>
		</g>
	</g>
</g>
</svg>
