<?xml version="1.0" encoding="utf-8"?>

<svg xmlns="http://www.w3.org/2000/svg" xmlns:xlink="http://www.w3.org/1999/xlink" x="0px" y="0px"
	 viewBox="0 0 40 40" style="enable-background:new 0 0 40 40;" xml:space="preserve"  width="40" height="40">
<path style="fill:#E32313" d="M37.93,7.05c-0.06-0.11-1.27-0.82-2.59-1.51c-1.26-0.67-3.8-1.66-5.52-2.16c-2.13-0.61-5.15-1.13-7.28-1.26
	c-3.89-0.22-7.59,0.19-11.17,1.24c-2.75,0.81-4.06,1.32-6.3,2.44C3.39,6.65,3.06,6.85,2.89,7.14c-0.11,0.2-0.12,0.3-0.12,2.33
	c0,2.22,0.1,3.57,0.39,5.64c0.57,3.92,2.13,8.41,4.13,11.91c1.5,2.63,4.29,6.04,6.64,8.12c1.48,1.31,2.47,2.04,4.79,3.52
	c1.13,0.72,1.55,0.96,1.69,0.96c0.34,0,2.3-1.18,3.64-2.19c1.38-1.05,3.34-2.76,4.53-3.95c2.32-2.33,4.54-5.45,6.03-8.45
	c1.47-2.99,2.32-5.64,2.89-9.05C38,13.07,38,13.1,38,9.97C38,7.96,37.98,7.13,37.93,7.05z M36.26,10.02
	c-0.01,2.14-0.07,2.84-0.42,4.95c-0.67,4.08-1.38,6.28-3.06,9.56c-1.25,2.46-2.4,4.13-4.47,6.52c-1.04,1.21-3.19,3.25-4.61,4.38
	c-1.26,1-2.97,2.11-3.27,2.11c-0.15,0-0.44-0.17-1.29-0.73c-2.2-1.47-3.33-2.36-4.94-3.96c-3.53-3.49-5.93-7.18-7.6-11.7
	c-0.85-2.31-1.52-5.06-1.76-7.19C4.62,11.72,4.5,8.52,4.66,8.14C4.72,8,4.88,7.89,5.6,7.53c1.83-0.91,3.12-1.46,4.78-2.01
	c2.42-0.8,4.79-1.28,7.55-1.54c0.72-0.07,3.59-0.04,4.81,0.05c4.24,0.31,8.22,1.39,11.76,3.18c0.84,0.42,1.58,0.82,1.64,0.89
	C36.26,8.21,36.27,8.29,36.26,10.02z M31.66,7.2c0.07,0.69,0.04,2.33-0.05,2.77c-0.29,1.36-1.13,2.53-2.48,3.43
	c-1.71,1.15-3.3,1.47-5.96,1.24c-0.65-0.06-1.09-0.07-1.18-0.04c-0.16,0.06-0.29,0.42-0.48,1.31c-0.23,1.04-0.08,2.85,0.23,2.91
	c0.06,0.01,0.35-0.09,0.64-0.22c0.58-0.26,1.46-0.54,2.13-0.67c0.64-0.13,2.27-0.11,2.87,0.03C27.89,18.09,28,18.14,28,18.3
	c0,0.13-1.73,4.43-1.83,4.54c-0.07,0.07-0.14,0.06-0.48-0.1c-0.22-0.1-0.57-0.22-0.76-0.26c-0.59-0.12-1.49,0.04-1.73,0.29
	c-0.09,0.1-0.09,0.14-0.01,0.49c0.05,0.21,0.11,0.78,0.13,1.25c0.04,0.99-0.06,1.75-0.32,2.56c-0.4,1.23-1.44,2.59-2.71,3.52
	c-0.6,0.45-1.74,1.02-2.48,1.24C17.33,31.98,17.19,32,16.34,32c-0.64,0.01-0.96-0.02-1.01-0.07c-0.05-0.05,0.02-0.25,0.32-0.87
	c0.6-1.22,0.8-1.95,0.86-3.06c0.05-1.14-0.08-1.9-0.64-3.65c-0.5-1.55-0.69-2.76-0.64-4.16c0.06-1.79,0.81-4.09,1.83-5.63
	c0.21-0.31,0.33-0.56,0.3-0.59c-0.03-0.03-0.49-0.05-1.03-0.05c-0.75,0-1.12,0.03-1.58,0.13c-1.36,0.27-2.7,0.82-3.92,1.58
	c-0.36,0.22-0.49,0.27-0.53,0.21c-0.09-0.13-0.06-1.67,0.04-2.23c0.27-1.56,1.05-3.06,2.18-4.2c0.69-0.7,1.22-1.09,2-1.46
	c1.03-0.5,1.83-0.66,3.25-0.68c0.91-0.01,1.4,0.07,3.75,0.56c3.28,0.69,4.75,0.91,5.98,0.9c0.44-0.01,0.67-0.04,1.04-0.17
	c0.99-0.33,2.08-0.93,2.71-1.48c0.14-0.13,0.28-0.23,0.3-0.23C31.61,6.84,31.64,7.01,31.66,7.2z"/>
</svg>
